<svg width="26" height="26" viewBox="0 0 26 26" fill="none" xmlns="http://www.w3.org/2000/svg">
<path d="M12.6647 25.3293C19.6592 25.3293 25.3293 19.6592 25.3293 12.6647C25.3293 5.67016 19.6592 0 12.6647 0C5.67016 0 0 5.67016 0 12.6647C0 19.6592 5.67016 25.3293 12.6647 25.3293Z" fill="white"/>
<path d="M12.9186 20.6646C17.3162 20.6646 20.8811 17.0996 20.8811 12.702C20.8811 8.30446 17.3162 4.7395 12.9186 4.7395C8.52101 4.7395 4.95605 8.30446 4.95605 12.702C4.95605 17.0996 8.52101 20.6646 12.9186 20.6646Z" fill="#FCEA2B"/>
<path d="M9.03019 7.533L11.8283 7.11276L10.459 9.5887L11.7233 12.1172L8.94614 11.5849L6.93246 13.567L6.58226 10.7619L4.07129 9.45563L6.63479 8.25793L7.09706 5.4668L9.03019 7.533Z" fill="#F1B31C"/>
<path d="M16.679 7.533L13.8809 7.11276L15.2502 9.5887L13.9859 12.1172L16.763 11.5849L18.7767 13.567L19.1269 10.7619L21.6379 9.45563L19.0744 8.25793L18.6121 5.4668L16.679 7.533Z" fill="#F1B31C"/>
<path d="M17.6804 16.3302C17.0536 17.8256 15.4566 18.8622 12.8826 18.8622C10.2876 18.8622 8.66967 17.8011 8.0498 16.2847C8.76072 16.4458 13.2959 17.3948 17.6804 16.3302Z" fill="#EA5A47"/>
<path d="M17.9848 14.7578C17.9848 15.3181 17.8832 15.8469 17.6801 16.3302C13.2955 17.3949 8.76037 16.4458 8.04946 16.2847C7.85685 15.8119 7.75879 15.2971 7.75879 14.7578H7.79731C7.79731 14.7578 12.9838 16.015 17.9147 14.7823L17.9848 14.7578Z" fill="white"/>
<path d="M17.9848 14.7578C17.9848 15.3181 17.8832 15.8469 17.6801 16.3302C13.2955 17.3949 8.76037 16.4458 8.04946 16.2847C7.85685 15.8119 7.75879 15.2971 7.75879 14.7578H7.79731C7.79731 14.7578 12.9838 16.015 17.9147 14.7823L17.9848 14.7578Z" stroke="black" stroke-width="0.8" stroke-miterlimit="10" stroke-linecap="round" stroke-linejoin="round"/>
<path d="M17.6804 16.3299C17.0536 17.8253 15.4566 18.8619 12.8826 18.8619C10.2876 18.8619 8.66967 17.8008 8.0498 16.2844C8.76072 16.4455 13.2959 17.3946 17.6804 16.3299Z" stroke="black" stroke-width="0.8" stroke-miterlimit="10" stroke-linejoin="round"/>
<path d="M17.8523 16.2881C17.7962 16.3021 17.7367 16.3161 17.6807 16.3301" stroke="black" stroke-width="0.8" stroke-miterlimit="10" stroke-linejoin="round"/>
<path d="M8.05071 16.2846C7.98383 16.267 7.95215 16.26 7.95215 16.26" stroke="black" stroke-width="0.8" stroke-miterlimit="10" stroke-linejoin="round"/>
<path d="M16.5632 5.54374C15.4566 4.96941 14.1993 4.64722 12.8685 4.64722C11.4852 4.64722 10.179 4.99742 9.04081 5.61378C9.0233 5.62429 9.00579 5.63129 8.98828 5.6418" stroke="black" stroke-width="0.8" stroke-miterlimit="10" stroke-linecap="round" stroke-linejoin="round"/>
<path d="M4.88002 11.6514C4.83449 11.9946 4.81348 12.3483 4.81348 12.702C4.81348 17.1496 8.42058 20.7567 12.8682 20.7567C17.3158 20.7567 20.9229 17.1496 20.9229 12.702C20.9229 12.3483 20.9019 12.0016 20.8563 11.6619" stroke="black" stroke-width="0.8" stroke-miterlimit="10" stroke-linecap="round" stroke-linejoin="round"/>
<path d="M9.05851 7.53276L11.8531 7.11251L10.4873 9.58846L11.7516 12.1169L8.97446 11.5846L6.95728 13.5668L6.61058 10.7616L4.09961 9.45538L6.6596 8.25768L7.12538 5.46655L9.05851 7.53276Z" stroke="black" stroke-width="0.8" stroke-miterlimit="10" stroke-linecap="round" stroke-linejoin="round"/>
<path d="M16.679 7.53276L13.8809 7.11251L15.2502 9.58846L13.9859 12.1169L16.763 11.5846L18.7767 13.5668L19.1269 10.7616L21.6379 9.45538L19.0744 8.25768L18.6121 5.46655L16.679 7.53276Z" stroke="black" stroke-width="0.8" stroke-miterlimit="10" stroke-linecap="round" stroke-linejoin="round"/>
</svg>
